<?xml version="1.0" encoding="UTF-8"?>
<svg id="Layer_2" data-name="Layer 2" xmlns="http://www.w3.org/2000/svg" xmlns:xlink="http://www.w3.org/1999/xlink" viewBox="0 0 173.12 45.02">
  <defs>
    <style>
      .cls-1 {
        fill: #eb662b;
      }

      .cls-2 {
        fill: url(#linear-gradient);
      }
    </style>
    <linearGradient id="linear-gradient" x1="15.37" y1="-279.09" x2="32.18" y2="-304.18" gradientTransform="translate(0 -274.9) scale(1 -1)" gradientUnits="userSpaceOnUse">
      <stop offset="0" stop-color="#eb662b"/>
      <stop offset="1" stop-color="#f28555"/>
    </linearGradient>
  </defs>
  <g id="Layer_1-2" data-name="Layer 1">
    <path class="cls-2" d="M39.92,6.45c-1.27.08-2.53.32-3.74.72-1.23.35-2.43.8-3.59,1.35-1.16.5-2.26,1.14-3.27,1.91-1.03.71-1.99,1.51-2.87,2.39-.89.93-1.71,1.91-2.47,2.95-.71,1.04-1.35,2.13-1.91,3.27-.52,1.17-.97,2.37-1.35,3.59-.32,1.23-.56,2.48-.72,3.75-.08-1.27-.33-2.53-.72-3.75-.35-1.23-.8-2.43-1.35-3.59-.5-1.16-1.14-2.26-1.91-3.27-.73-1.04-1.53-2.02-2.39-2.95-.93-.86-1.91-1.66-2.95-2.39-1.01-.77-2.1-1.41-3.27-1.91-1.14-.58-2.34-1.04-3.59-1.35-1.21-.4-2.47-.64-3.75-.72C.08,7.17,0,7.89,0,8.61c-.03,1.47.1,2.94.4,4.38.15.73.33,1.44.56,2.15.17.71.41,1.41.72,2.07.26.68.55,1.34.88,1.99l1.12,1.91,1.35,1.75,1.43,1.59,1.59,1.51,1.75,1.27c.64.48,1.27.8,1.91,1.2l1.99.96,1.99.72,2.15.56,2.15.32,2.15-.32,2.15-.56,2.07-.72,1.99-.96,1.83-1.2,1.75-1.27c.57-.46,1.1-.97,1.59-1.51.54-.49,1.05-1.02,1.51-1.59l1.27-1.75c.4-.64.8-1.27,1.12-1.91l.96-1.99.72-2.07c.2-.71.36-1.43.48-2.15.15-.71.25-1.43.32-2.15.11-.74.13-1.49.08-2.23.01-.72-.01-1.44-.08-2.15Z"/>
    <path class="cls-1" d="M25.02,5.1c.02.35-.01.7-.08,1.04-.07.36-.18.7-.32,1.04l-.48.88-.64.8-.8.64-.96.48-.96.32h-2.07l-1.04-.32-.88-.48-.8-.64-.72-.8-.48-.88-.32-1.04c0-.32-.08-.64-.08-1.04s.08-.64.08-.96.24-.72.32-1.04l.48-.88.72-.8c.23-.25.5-.47.8-.64l.88-.48,1.04-.32h2.07l.96.32.96.48.8.64.64.8.48.88c.15.33.26.68.32,1.04.07.31.09.64.08.96Z"/>
    <path class="cls-1" d="M47.91,2.64h5.73l5.16,14.8,5.56-14.8h5.34v25.09h-4.3V11.07l-5.05,13.23h-3.4l-5.09-13.26v16.7h-3.94V2.64Z"/>
    <path class="cls-1" d="M89.49,17.98v9.79h-4.3v-1c-.69.45-1.45.77-2.28.95-.82.18-1.64.27-2.46.27-1.55,0-2.92-.26-4.09-.79-1.17-.52-2.14-1.22-2.9-2.08-.77-.86-1.34-1.84-1.72-2.94-.38-1.1-.57-2.23-.57-3.41,0-1.5.28-2.84.84-4,.56-1.16,1.29-2.12,2.19-2.89.9-.76,1.92-1.34,3.06-1.74,1.15-.39,2.31-.59,3.48-.59s2.2.16,3.24.48c1.04.32,1.97.82,2.8,1.51.82.68,1.48,1.55,1.97,2.62.49,1.06.73,2.34.73,3.82ZM75.47,18.74c0,.64.11,1.28.34,1.92.23.63.57,1.2,1.02,1.7.45.5,1.02.91,1.7,1.22s1.48.47,2.38.47c.74,0,1.39-.15,1.94-.45.55-.3,1.01-.69,1.38-1.18.37-.49.65-1.05.84-1.68.19-.63.29-1.27.29-1.92.02-.88-.1-1.65-.36-2.29-.26-.65-.62-1.18-1.06-1.61-.44-.43-.95-.76-1.52-.99-.57-.23-1.17-.34-1.79-.34s-1.27.11-1.88.32-1.16.54-1.65.97c-.49.43-.88.97-1.18,1.61-.3.65-.45,1.4-.45,2.26Z"/>
    <path class="cls-1" d="M90.92,36.69V9.81h9.53c1.89,0,3.46.45,4.71,1.34,1.25.9,2.2,2.02,2.83,3.37.63,1.35.94,2.81.93,4.37-.01,1.57-.35,3.02-1,4.37-.66,1.35-1.64,2.47-2.96,3.37-1.31.9-2.96,1.34-4.95,1.34-.81,0-1.65-.11-2.51-.32-.86-.22-1.64-.56-2.33-1.04v10.07h-4.27ZM99.99,24.04c1.03,0,1.88-.26,2.56-.77s1.19-1.15,1.54-1.9c.35-.75.53-1.58.54-2.47.01-.9-.14-1.72-.45-2.47-.31-.75-.78-1.38-1.4-1.9-.62-.51-1.4-.77-2.33-.77h-5.23v6.2c0,.79.15,1.44.47,1.95.31.51.7.93,1.17,1.25.47.32.98.55,1.54.68.56.13,1.09.2,1.6.2Z"/>
    <path class="cls-1" d="M114.68,14.61c0,.41.26.74.77,1,.51.26,1.16.51,1.94.75.78.24,1.61.5,2.51.77.9.28,1.73.64,2.51,1.09s1.42,1.03,1.94,1.74c.51.71.77,1.58.77,2.63,0,.74-.14,1.45-.43,2.11-.29.67-.75,1.25-1.38,1.76-.63.5-1.46.9-2.47,1.18-1.02.29-2.24.43-3.67.43-.62,0-1.27-.03-1.94-.09-.67-.06-1.31-.15-1.94-.27-.62-.12-1.21-.26-1.76-.43-.55-.17-1.03-.36-1.43-.57l1.68-3.76c.31.14.7.29,1.17.43.47.14.96.27,1.47.38.51.11,1.02.2,1.51.27.49.07.9.11,1.24.11,1.36,0,2.31-.11,2.85-.34.54-.23.81-.59.81-1.09,0-.41-.26-.73-.77-.97-.51-.24-1.16-.47-1.94-.68-.78-.21-1.61-.46-2.51-.73-.9-.27-1.73-.63-2.51-1.06-.78-.43-1.42-.98-1.94-1.65-.51-.67-.77-1.53-.77-2.58s.21-1.86.63-2.56c.42-.7.98-1.28,1.68-1.72.7-.44,1.53-.76,2.47-.97.94-.2,1.95-.3,3.03-.3,1.22.02,2.3.16,3.24.39.94.24,1.83.57,2.67,1l-1.68,3.73c-.48-.31-1.16-.58-2.06-.82-.9-.24-1.92-.36-3.06-.36-.29,0-.59.02-.9.07s-.59.12-.84.21c-.25.1-.46.22-.63.36-.17.14-.25.32-.25.54Z"/>
    <path class="cls-1" d="M134.25,27.98c-1.22,0-2.32-.19-3.32-.57-.99-.38-1.84-.94-2.54-1.68-.71-.74-1.25-1.64-1.63-2.71-.38-1.06-.57-2.29-.57-3.67V2.64h4.3v7.17h3.76v3.94h-3.73v5.84c0,1.22.31,2.26.93,3.14.62.87,1.55,1.31,2.8,1.31v3.94Z"/>
    <path class="cls-1" d="M144.18,28.02c-1.65,0-3.07-.26-4.27-.79s-2.18-1.22-2.96-2.1c-.78-.87-1.35-1.86-1.72-2.97-.37-1.11-.56-2.25-.56-3.42s.19-2.31.56-3.42c.37-1.11.94-2.1,1.72-2.98.78-.87,1.76-1.57,2.96-2.1,1.19-.53,2.62-.79,4.27-.79s3.07.26,4.27.79c1.19.53,2.18,1.22,2.96,2.1.78.87,1.35,1.86,1.72,2.98.37,1.11.56,2.25.56,3.42s-.19,2.31-.56,3.42c-.37,1.11-.94,2.1-1.72,2.97-.78.87-1.76,1.57-2.96,2.1-1.2.53-2.62.79-4.27.79ZM144.18,13.4c-1.15,0-2.11.26-2.89.79-.78.53-1.36,1.18-1.76,1.97-.39.79-.59,1.65-.57,2.58.01.93.21,1.79.59,2.58.38.79.96,1.45,1.74,1.97.78.53,1.74.79,2.89.79s2.11-.26,2.89-.79c.78-.53,1.36-1.18,1.74-1.97.38-.79.57-1.65.57-2.58s-.19-1.79-.57-2.58c-.38-.79-.96-1.45-1.74-1.97-.78-.52-1.74-.79-2.89-.79Z"/>
    <path class="cls-1" d="M155.11,36.69V9.81h9.53c1.89,0,3.46.45,4.71,1.34,1.25.9,2.2,2.02,2.83,3.37.63,1.35.94,2.81.93,4.37-.01,1.57-.35,3.02-1,4.37-.66,1.35-1.64,2.47-2.96,3.37-1.31.9-2.96,1.34-4.95,1.34-.81,0-1.65-.11-2.51-.32-.86-.22-1.64-.56-2.33-1.04v10.07h-4.27ZM164.18,24.04c1.03,0,1.88-.26,2.56-.77s1.19-1.15,1.54-1.9c.35-.75.53-1.58.54-2.47.01-.9-.14-1.72-.45-2.47-.31-.75-.78-1.38-1.4-1.9-.62-.51-1.4-.77-2.33-.77h-5.23v6.2c0,.79.15,1.44.47,1.95.31.51.7.93,1.17,1.25.47.32.98.55,1.54.68.56.13,1.09.2,1.6.2Z"/>
    <path class="cls-1" d="M103.76,33.68v11.15h-2.26v-11.15h-3.66v-2.06h9.58v2.06h-3.66Z"/>
    <path class="cls-1" d="M106.46,44.83v-6.87c0-.75.23-1.37.7-1.85.46-.48,1.15-.72,2.06-.72h2.83v2.08h-2.49c-.3,0-.52.07-.64.21-.13.14-.19.32-.19.55v6.6h-2.26Z"/>
    <path class="cls-1" d="M122.22,39.7v5.15h-2.26v-.53c-.37.24-.76.41-1.2.5-.43.09-.87.14-1.29.14-.82,0-1.53-.14-2.15-.42-.62-.28-1.13-.64-1.53-1.09-.4-.45-.7-.97-.91-1.55-.2-.58-.3-1.18-.3-1.79,0-.79.15-1.49.44-2.1.3-.61.68-1.12,1.15-1.52.47-.4,1.01-.71,1.61-.92.6-.21,1.21-.31,1.83-.31s1.16.08,1.71.25,1.04.43,1.47.79.78.82,1.04,1.38.39,1.23.39,2.01ZM114.84,40.09c0,.34.06.68.18,1.01.12.33.3.63.54.9.24.26.54.48.9.64.36.16.78.25,1.25.25.39,0,.73-.08,1.02-.24.29-.16.53-.36.73-.62.19-.26.34-.55.44-.89.1-.33.15-.67.15-1.01.01-.46-.05-.87-.19-1.21-.14-.34-.32-.62-.56-.85s-.5-.4-.8-.52-.62-.18-.94-.18-.67.06-.99.17c-.32.11-.61.28-.87.51s-.47.51-.62.85c-.16.34-.24.74-.24,1.19Z"/>
    <path class="cls-1" d="M122.59,35.4h2.36l2.34,7.49,2.34-7.49h2.17l-2.94,9.43h-3.32l-2.94-9.43Z"/>
    <path class="cls-1" d="M141.42,41.53c-.13.47-.32.91-.58,1.33-.26.42-.58.79-.98,1.1-.4.31-.86.56-1.41.75-.54.18-1.16.27-1.85.27-.87,0-1.62-.14-2.25-.42-.63-.28-1.15-.64-1.56-1.1-.41-.46-.71-.98-.91-1.57-.2-.58-.29-1.19-.29-1.8s.1-1.22.29-1.8c.19-.58.5-1.11.91-1.57.41-.46.93-.83,1.56-1.1.63-.28,1.38-.42,2.25-.42.82,0,1.53.14,2.13.42.6.28,1.1.64,1.5,1.1.4.46.69.98.89,1.57s.29,1.19.29,1.8c0,.11,0,.23-.02.35-.01.12-.03.24-.04.35h-7.45c.14.57.43,1.06.87,1.48.44.42,1.05.63,1.83.63.6,0,1.11-.13,1.51-.39.4-.26.71-.59.92-.99h2.38ZM138.97,38.9c-.18-.46-.46-.85-.86-1.16-.4-.31-.9-.46-1.5-.46-.67,0-1.21.16-1.63.47s-.73.7-.92,1.15h4.91Z"/>
    <path class="cls-1" d="M142.2,30.68h2.26v14.17h-2.26v-14.17Z"/>
    <path class="cls-1" d="M147.5,37.92c0,.21.13.39.41.53.27.14.61.27,1.02.4.41.13.85.26,1.32.41s.91.34,1.32.58c.41.24.75.54,1.02.92.27.37.41.83.41,1.39,0,.39-.08.76-.23,1.11-.15.35-.39.66-.73.92-.33.26-.77.47-1.3.62-.54.15-1.18.23-1.93.23-.33,0-.67-.02-1.02-.05s-.69-.08-1.02-.14c-.33-.06-.64-.14-.92-.23s-.54-.19-.75-.3l.89-1.98c.16.08.37.15.61.23.25.08.5.14.77.2s.53.1.79.14.47.06.65.06c.72,0,1.22-.06,1.5-.18.28-.12.42-.31.42-.58,0-.21-.14-.38-.41-.51-.27-.12-.61-.25-1.02-.36s-.85-.24-1.32-.39c-.47-.14-.91-.33-1.32-.56s-.75-.52-1.02-.87c-.27-.35-.41-.81-.41-1.36s.11-.98.33-1.35c.22-.37.52-.67.89-.91s.8-.4,1.3-.51c.5-.11,1.03-.16,1.59-.16.64.01,1.21.08,1.71.21.5.13.96.3,1.41.53l-.89,1.96c-.25-.16-.61-.31-1.08-.43-.47-.12-1.01-.19-1.61-.19-.15,0-.31.01-.47.04-.16.03-.31.06-.44.11-.13.05-.24.11-.33.19s-.13.17-.13.28Z"/>
  </g>
</svg>